#!OML:ASF X:\für Bonn\!DataBase\2005_08_11_Bastian_Final\c3d\Bastian.ASF
:FULLY-SPECIFIED
:DEGREES
91
root -0.0628955 17.301 23.2923 -911.374 -18.1894 -897.193
lowerback 10.172 -2.45455 -0.40511
upperback 7.53461 -4.15922 1.86588
thorax 2.32966 -2.50866 2.46996
lowerneck -19.5192 -7.41722 -4.5984
upperneck 11.9222 -9.89946 6.3071
head 7.39039 -4.40611 1.59063
rclavicle -1.47101e-014 1.19271e-015
rhumerus -35.0685 -0.757335 -85.7129
rradius 27.2197
rwrist -3.17791
rhand -10.8752 4.16565
rfingers 7.12502
rthumb 15.1407 -25.2605
lclavicle -1.47101e-014 1.19271e-015
lhumerus -200.747 -187.826 264.548
lradius 11.9893
lwrist 4.51337
lhand -10.9393 -9.00782
lfingers 7.12502
lthumb 15.079 20.423
rfemur 1.3272 -2.37289 26.5305
rtibia 31.9644
rfoot -18.4021 -20.3908
rtoes 8.89287
lfemur 0.974311 3.0768 -14.0322
ltibia 38.1768
lfoot -12.754 -4.96077
ltoes -21.2515
92
root -0.0670069 17.3029 23.2876 -911.342 -18.282 -897.243
lowerback 10.2662 -2.39618 -0.326747
upperback 7.586 -4.08483 1.84336
thorax 2.32201 -2.47209 2.40129
lowerneck -19.4621 -7.47861 -4.66086
upperneck 11.8372 -9.94448 6.22819
head 7.35364 -4.43905 1.57183
rclavicle -4.51738e-014 2.90226e-014
rhumerus -35.0146 -0.366358 -85.8602
rradius 27.2441
rwrist -3.37173
rhand -10.8075 4.13332
rfingers 7.12502
rthumb 15.2059 -25.2879
lclavicle -4.51738e-014 2.90226e-014
lhumerus -200.892 -187.569 264.56
lradius 12.3071
lwrist 5.15658
lhand -10.9663 -8.96991
lfingers 7.12502
lthumb 15.0529 20.4628
rfemur 1.33995 -2.49608 26.4398
rtibia 31.9446
rfoot -18.401 -20.3889
rtoes 8.47287
lfemur 0.510677 3.19057 -14.089
ltibia 38.2933
lfoot -12.5366 -5.6521
ltoes -22.1644
93
root -0.0719348 17.3039 23.284 -911.322 -18.3937 -897.315
lowerback 10.3985 -2.32913 -0.26907
upperback 7.65306 -4.00392 1.81949
thorax 2.31152 -2.4347 2.34379
lowerneck -19.4554 -7.55198 -4.70788
upperneck 11.7641 -10.0015 6.11162
head 7.32674 -4.47878 1.53535
rclavicle 1.44119e-014 -1.25234e-014
rhumerus -34.9522 0.00792342 -85.9791
rradius 27.2959
rwrist -3.52569
rhand -10.7591 4.077
rfingers 7.12502
rthumb 15.2525 -25.3407
lclavicle 1.44119e-014 -1.25234e-014
lhumerus -201.003 -187.278 264.61
lradius 12.6047
lwrist 5.78593
lhand -11.0598 -8.9728
lfingers 7.12502
lthumb 14.9629 20.4667
rfemur 1.36607 -2.59097 26.3339
rtibia 31.9176
rfoot -18.4038 -20.4507
rtoes 7.97269
lfemur 0.110593 3.24621 -14.1907
ltibia 38.2987
lfoot -12.3099 -6.22425
ltoes -22.8747
94
root -0.0766333 17.3066 23.2803 -911.301 -18.5036 -897.366
lowerback 10.5542 -2.26314 -0.19101
upperback 7.69133 -3.91773 1.79187
thorax 2.25645 -2.39153 2.27299
lowerneck -19.4288 -7.63537 -4.76747
upperneck 11.7401 -10.0771 6.01371
head 7.31549 -4.52587 1.50429
rclavicle -2.01269e-014 -1.03368e-014
rhumerus -34.9788 0.394182 -86.1383
rradius 27.4226
rwrist -3.7366
rhand -10.7141 4.00121
rfingers 7.12502
rthumb 15.2959 -25.4132
lclavicle -2.01269e-014 -1.03368e-014
lhumerus -201.154 -187.084 264.611
lradius 12.9126
lwrist 6.36372
lhand -11.0988 -8.95008
lfingers 7.12502
lthumb 14.9253 20.4922
rfemur 1.39749 -2.67032 26.2565
rtibia 31.8749
rfoot -18.3797 -20.5282
rtoes 7.52604
lfemur -0.264071 3.32272 -14.2653
ltibia 38.1976
lfoot -12.0759 -6.73359
ltoes -23.6331
95
root -0.081693 17.3116 23.2766 -911.273 -18.6215 -897.436
lowerback 10.7117 -2.20271 -0.164366
upperback 7.73987 -3.84605 1.78638
thorax 2.21716 -2.35961 2.25427
lowerneck -19.4055 -7.71589 -4.89385
upperneck 11.6662 -10.1314 5.93945
head 7.29198 -4.5643 1.4946
rclavicle 3.65764e-014 -5.76476e-015
rhumerus -34.9602 0.776398 -86.227
rradius 27.5528
rwrist -3.92184
rhand -10.6334 3.94133
rfingers 7.12502
rthumb 15.3736 -25.4671
lclavicle 3.65764e-014 -5.76476e-015
lhumerus -201.253 -187.202 264.583
lradius 13.1454
lwrist 6.70965
lhand -11.1386 -8.99548
lfingers 7.12502
lthumb 14.887 20.4496
rfemur 1.43103 -2.70717 26.1636
rtibia 31.8161
rfoot -18.3748 -20.6406
rtoes 7.19116
lfemur -0.613354 3.40733 -14.3699
ltibia 37.996
lfoot -11.7986 -7.16212
ltoes -24.1675
96
root -0.0869039 17.3166 23.272 -911.244 -18.7225 -897.515
lowerback 10.8657 -2.12696 -0.147757
upperback 7.7869 -3.75417 1.77931
thorax 2.17795 -2.31766 2.23741
lowerneck -19.3959 -7.80436 -5.01794
upperneck 11.6223 -10.1947 5.84332
head 7.27965 -4.60786 1.47547
rclavicle -5.41688e-015 1.59028e-015
rhumerus -34.9749 1.22028 -86.349
rradius 27.7144
rwrist -4.11888
rhand -10.6002 3.83996
rfingers 7.12502
rthumb 15.4056 -25.566
lclavicle -5.41688e-015 1.59028e-015
lhumerus -201.39 -187.033 264.619
lradius 13.4389
lwrist 7.24948
lhand -11.2016 -9.01767
lfingers 7.12502
lthumb 14.8263 20.4319
rfemur 1.49163 -2.66354 26.0905
rtibia 31.7344
rfoot -18.3613 -20.8164
rtoes 6.89319
lfemur -0.92668 3.52107 -14.4864
ltibia 37.7099
lfoot -11.4874 -7.53596
ltoes -24.2507
97
root -0.0924086 17.3214 23.2693 -911.222 -18.8602 -897.56
lowerback 11.0478 -2.07105 -0.107199
upperback 7.83066 -3.68722 1.77897
thorax 2.1205 -2.2877 2.21768
lowerneck -19.3793 -7.89215 -5.17244
upperneck 11.5616 -10.254 5.77652
head 7.26384 -4.64879 1.4714
rclavicle 3.02153e-014 1.23246e-014
rhumerus -34.9707 1.61929 -86.4428
rradius 27.8734
rwrist -4.25506
rhand -10.5659 3.75955
rfingers 7.12502
rthumb 15.4386 -25.6439
lclavicle 3.02153e-014 1.23246e-014
lhumerus -201.487 -187.18 264.58
lradius 13.6587
lwrist 7.55009
lhand -11.2527 -9.10818
lfingers 7.12502
lthumb 14.7771 20.345
rfemur 1.53468 -2.67522 26.036
rtibia 31.6512
rfoot -18.3304 -20.9815
rtoes 6.57013
lfemur -1.22829 3.55145 -14.5982
ltibia 37.3479
lfoot -11.2323 -7.84073
ltoes -24.4306
98
root -0.0980228 17.3258 23.2659 -911.196 -18.9679 -897.633
lowerback 11.2299 -1.99928 -0.080493
upperback 7.88016 -3.60015 1.75426
thorax 2.06751 -2.24761 2.17814
lowerneck -19.3992 -7.98505 -5.30002
upperneck 11.551 -10.3268 5.69554
head 7.26902 -4.69463 1.45488
rclavicle 1.41137e-014 -2.16675e-014
rhumerus -34.9713 1.99458 -86.5695
rradius 28.0345
rwrist -4.4013
rhand -10.5261 3.68815
rfingers 7.12502
rthumb 15.477 -25.7123
lclavicle 1.41137e-014 -2.16675e-014
lhumerus -201.566 -187.25 264.517
lradius 13.8676
lwrist 7.8928
lhand -11.2447 -9.21803
lfingers 7.12502
lthumb 14.7847 20.2346
rfemur 1.58943 -2.60807 25.9723
rtibia 31.563
rfoot -18.3186 -21.1805
rtoes 6.37268
lfemur -1.49148 3.55838 -14.754
ltibia 36.9301
lfoot -11.0661 -8.03962
ltoes -24.5079
99
root -0.103742 17.3305 23.2629 -911.165 -19.0997 -897.706
lowerback 11.4239 -1.93318 -0.0718718
upperback 7.92114 -3.52138 1.74329
thorax 2.00169 -2.21241 2.16427
lowerneck -19.3916 -8.08372 -5.47856
upperneck 11.4947 -10.3982 5.64681
head 7.25924 -4.74064 1.45821
rclavicle -6.64438e-014 2.68359e-014
rhumerus -34.9736 2.34734 -86.6528
rradius 28.1877
rwrist -4.49633
rhand -10.4968 3.66573
rfingers 7.12502
rthumb 15.5052 -25.7326
lclavicle -6.64438e-014 2.68359e-014
lhumerus -201.647 -187.495 264.438
lradius 14.0339
lwrist 8.02881
lhand -11.2042 -9.37387
lfingers 7.12502
lthumb 14.8238 20.0759
rfemur 1.63793 -2.53384 25.908
rtibia 31.4847
rfoot -18.3077 -21.4032
rtoes 6.33835
lfemur -1.73504 3.50006 -14.9342
ltibia 36.4639
lfoot -10.9797 -8.16604
ltoes -24.5371
100
root -0.109887 17.3343 23.2594 -911.152 -19.2317 -897.757
lowerback 11.6158 -1.86977 -0.042264
upperback 7.97675 -3.44697 1.72529
thorax 1.95127 -2.17955 2.13074
lowerneck -19.3916 -8.18228 -5.64814
upperneck 11.447 -10.4728 5.59926
head 7.2534 -4.7874 1.45969
rclavicle -1.7344e-014 -1.68967e-014
rhumerus -34.9423 2.68152 -86.7536
rradius 28.3292
rwrist -4.56149
rhand -10.4884 3.61544
rfingers 7.12502
rthumb 15.5132 -25.7822
lclavicle -1.7344e-014 -1.68967e-014
lhumerus -201.728 -187.663 264.352
lradius 14.2458
lwrist 8.22768
lhand -11.1788 -9.49717
lfingers 7.12502
lthumb 14.8482 19.9508
rfemur 1.69814 -2.48658 25.863
rtibia 31.4043
rfoot -18.3118 -21.606
rtoes 6.15131
lfemur -1.94592 3.42606 -15.0926
ltibia 35.9683
lfoot -10.9331 -8.27014
ltoes -24.2996
101
root -0.115865 17.338 23.2563 -911.158 -19.3607 -897.805
lowerback 11.8375 -1.81123 -0.0375956
upperback 8.03757 -3.38404 1.72405
thorax 1.89357 -2.15513 2.13069
lowerneck -19.419 -8.28038 -5.84945
upperneck 11.4286 -10.5356 5.53651
head 7.26186 -4.83002 1.46121
rclavicle 6.78353e-014 -1.33186e-014
rhumerus -34.9047 2.94906 -86.7933
rradius 28.4737
rwrist -4.56171
rhand -10.3942 3.62224
rfingers 7.12502
rthumb 15.604 -25.7684
lclavicle 6.78353e-014 -1.33186e-014
lhumerus -201.796 -187.885 264.275
lradius 14.4484
lwrist 8.35635
lhand -11.148 -9.583
lfingers 7.12502
lthumb 14.8779 19.8628
rfemur 1.77317 -2.41981 25.8264
rtibia 31.3335
rfoot -18.2824 -21.8326
rtoes 5.91031
lfemur -2.10671 3.31008 -15.2591
ltibia 35.4441
lfoot -10.9668 -8.31388
ltoes -24.0706
102
root -0.122476 17.3418 23.2532 -911.143 -19.4874 -897.832
lowerback 12.0331 -1.75378 0.0106829
upperback 8.08701 -3.31505 1.70753
thorax 1.83449 -2.12399 2.08851
lowerneck -19.4407 -8.37209 -6.00501
upperneck 11.4147 -10.602 5.46727
head 7.26836 -4.87329 1.45323
rclavicle -7.45443e-015 -2.36554e-014
rhumerus -34.8978 3.24251 -86.8792
rradius 28.6206
rwrist -4.62663
rhand -10.3742 3.62599
rfingers 7.12502
rthumb 15.6233 -25.7631
lclavicle -7.45443e-015 -2.36554e-014
lhumerus -201.902 -188.115 264.166
lradius 14.6976
lwrist 8.47577
lhand -11.0851 -9.68909
lfingers 7.12502
lthumb 14.9385 19.7522
rfemur 1.82057 -2.32645 25.8176
rtibia 31.2532
rfoot -18.269 -22.0987
rtoes 5.76625
lfemur -2.27954 3.19492 -15.406
ltibia 34.9135
lfoot -11.0031 -8.35313
ltoes -23.6649
103
root -0.128435 17.3451 23.2491 -911.14 -19.6292 -897.879
lowerback 12.2393 -1.70021 -0.00515342
upperback 8.14973 -3.26036 1.69841
thorax 1.78844 -2.10414 2.09104
lowerneck -19.46 -8.45426 -6.16224
upperneck 11.3799 -10.6523 5.38735
head 7.26614 -4.91033 1.44458
rclavicle 3.85642e-014 -1.27222e-014
rhumerus -34.8433 3.48358 -86.9282
rradius 28.7221
rwrist -4.58516
rhand -10.316 3.70594
rfingers 7.12502
rthumb 15.6793 -25.6788
lclavicle 3.85642e-014 -1.27222e-014
lhumerus -201.975 -188.297 264.081
lradius 14.9321
lwrist 8.67389
lhand -11.0125 -9.748
lfingers 7.12502
lthumb 15.0084 19.6881
rfemur 1.88717 -2.27259 25.7853
rtibia 31.1701
rfoot -18.2063 -22.3497
rtoes 5.47063
lfemur -2.39568 3.06448 -15.5715
ltibia 34.3754
lfoot -11.1017 -8.41313
ltoes -23.2535
104
root -0.135275 17.3494 23.2451 -911.151 -19.7671 -897.905
lowerback 12.4432 -1.64164 0.0267308
upperback 8.21999 -3.19558 1.67754
thorax 1.74826 -2.07755 2.05297
lowerneck -19.468 -8.54997 -6.3136
upperneck 11.3343 -10.726 5.32305
head 7.26049 -4.95742 1.43743
rclavicle -4.11484e-014 2.16675e-014
rhumerus -34.7858 3.65791 -86.9761
rradius 28.8303
rwrist -4.5589
rhand -10.2721 3.79436
rfingers 7.12502
rthumb 15.7216 -25.587
lclavicle -4.11484e-014 2.16675e-014
lhumerus -202.048 -188.465 263.978
lradius 15.1906
lwrist 8.81429
lhand -10.9102 -9.78423
lfingers 7.12502
lthumb 15.107 19.6445
rfemur 1.97042 -2.17814 25.7762
rtibia 31.0648
rfoot -18.1836 -22.6106
rtoes 5.44627
lfemur -2.50055 2.90444 -15.7223
ltibia 33.847
lfoot -11.1803 -8.42729
ltoes -22.7974
